<svg width="430" height="430" viewBox="0 0 430 430" fill="none" xmlns="http://www.w3.org/2000/svg">
<circle cx="215.5" cy="215.5" r="11.5" fill="#383838" stroke="#383838" stroke-width="7" stroke-linejoin="round"/>
<circle cx="118" cy="220" r="16" stroke="#383838" stroke-width="7" stroke-linejoin="round"/>
<circle cx="215.5" cy="163.5" r="11.5" stroke="#383838" stroke-width="7" stroke-linejoin="round"/>
<circle cx="149.5" cy="338.5" r="11.5" stroke="#383838" stroke-width="7" stroke-linejoin="round"/>
<circle cx="316" cy="367" r="17" stroke="#383838" stroke-width="7" stroke-linejoin="round"/>
<path fill-rule="evenodd" clip-rule="evenodd" d="M226.754 165.875C226.915 165.109 227 164.314 227 163.5C227 161.718 226.595 160.032 225.872 158.526C252.43 163.609 272.5 186.96 272.5 215C272.5 246.756 246.756 272.5 215 272.5C183.244 272.5 157.5 246.756 157.5 215C157.5 186.575 178.125 162.968 205.226 158.327C204.442 159.882 204 161.64 204 163.5C204 164.237 204.069 164.958 204.202 165.657C181.5 170.602 164.5 190.816 164.5 215C164.5 242.89 187.11 265.5 215 265.5C242.89 265.5 265.5 242.89 265.5 215C265.5 191.157 248.976 171.173 226.754 165.875Z" fill="#383838"/>
<path fill-rule="evenodd" clip-rule="evenodd" d="M79.5 215.5C79.5 140.389 140.389 79.5 215.5 79.5C290.611 79.5 351.5 140.389 351.5 215.5C351.5 290.611 290.611 351.5 215.5 351.5C196.077 351.5 177.605 347.428 160.891 340.092C160.554 342.521 159.459 344.708 157.853 346.405C175.487 354.182 194.989 358.5 215.5 358.5C294.477 358.5 358.5 294.477 358.5 215.5C358.5 136.523 294.477 72.5 215.5 72.5C136.523 72.5 72.5 136.523 72.5 215.5C72.5 266.04 98.7191 310.457 138.297 335.89C138.847 333.521 140.129 331.433 141.891 329.877C104.354 305.67 79.5 263.487 79.5 215.5Z" fill="#383838"/>
<path fill-rule="evenodd" clip-rule="evenodd" d="M36.5 215C36.5 116.417 116.417 36.5 215 36.5C313.583 36.5 393.5 116.417 393.5 215C393.5 271.179 367.547 321.297 326.976 354.018C328.766 355.533 330.239 357.411 331.28 359.539C373.492 325.537 400.5 273.423 400.5 215C400.5 112.551 317.449 29.5 215 29.5C112.551 29.5 29.5 112.551 29.5 215C29.5 317.449 112.551 400.5 215 400.5C246.936 400.5 276.987 392.43 303.225 378.217C301.687 376.466 300.502 374.396 299.784 372.118C274.563 385.757 245.686 393.5 215 393.5C116.417 393.5 36.5 313.583 36.5 215Z" fill="#383838"/>
<path fill-rule="evenodd" clip-rule="evenodd" d="M121.099 204.3C126.413 157.147 166.427 120.5 215 120.5C267.191 120.5 309.5 162.809 309.5 215C309.5 267.191 267.191 309.5 215 309.5C169.779 309.5 131.976 277.736 122.686 235.303C121.204 235.756 119.631 236 118 236C117.198 236 116.409 235.941 115.639 235.827C125.246 281.894 166.081 316.5 215 316.5C271.057 316.5 316.5 271.057 316.5 215C316.5 158.943 271.057 113.5 215 113.5C162.49 113.5 119.294 153.374 114.037 204.495C115.304 204.172 116.632 204 118 204C119.06 204 120.096 204.103 121.099 204.3Z" fill="#383838"/>
<line x1="362.646" y1="69.3536" x2="358.646" y2="65.3536" stroke="black"/>
</svg>
